<svg viewBox="0 0 219 42" xmlns="http://www.w3.org/2000/svg" data-logo="logo">
        <g transform="translate(0, 1) rotate(0)" id="logogram" style="opacity: 1;"><path fill="#FDA52B" d="M21.3474 0.349945L46.7544 25.7266V39.3499H34.8978V30.624L16.4444 12.1924H12.611V39.3499H0.754395V0.349945H21.3474ZM34.8978 13.8842V0.349945H46.7544V13.8842H34.8978Z"></path></g>
        <g transform="translate(53, 8)" id="logotype" style="opacity: 1;"><path d="M11.14 26L11.14 26Q10.16 26 9.39 25.39Q8.63 24.77 8.63 23.86L8.63 23.86L8.63 3.63Q8.63 2.72 9.24 2.11Q9.85 1.50 10.76 1.50L10.76 1.50L20.84 1.50Q22.66 1.50 24.25 2.46Q25.85 3.42 26.83 5.12Q27.81 6.82 27.81 9.02L27.81 9.02Q27.81 10.35 27.26 11.61Q26.72 12.87 25.79 13.89Q24.87 14.90 23.71 15.46L23.71 15.46L23.75 14.66Q24.73 15.18 25.37 15.90Q26.02 16.62 26.39 17.44Q26.76 18.27 26.83 19.21L26.83 19.21Q26.97 20.09 27.02 20.75Q27.07 21.41 27.23 21.87Q27.39 22.32 27.84 22.57L27.84 22.57Q28.61 23.02 28.80 23.88Q29.00 24.74 28.40 25.41L28.40 25.41Q28.02 25.86 27.42 25.98Q26.83 26.11 26.23 25.98Q25.64 25.86 25.25 25.65L25.25 25.65Q24.66 25.30 24.06 24.62Q23.47 23.93 23.10 22.78Q22.73 21.63 22.73 19.80L22.73 19.80Q22.73 19.21 22.52 18.70Q22.31 18.20 21.93 17.83Q21.54 17.46 20.95 17.27Q20.35 17.07 19.55 17.07L19.55 17.07L12.48 17.07L13 16.27L13 23.86Q13 24.77 12.51 25.39Q12.02 26 11.14 26ZM13 14.31L12.51 13.47L20.66 13.47Q21.30 13.47 21.89 12.89Q22.49 12.31 22.87 11.32Q23.26 10.32 23.26 9.13L23.26 9.13Q23.26 7.59 22.43 6.56Q21.61 5.52 20.66 5.52L20.66 5.52L12.58 5.52L13 4.40L13 14.31ZM50.31 16.66L50.31 16.66Q50.31 19.52 49.03 21.71Q47.76 23.90 45.60 25.13Q43.45 26.35 40.79 26.35L40.79 26.35Q38.13 26.35 35.98 25.13Q33.83 23.90 32.55 21.71Q31.27 19.52 31.27 16.66L31.27 16.66Q31.27 13.78 32.55 11.60Q33.83 9.41 35.98 8.17Q38.13 6.92 40.79 6.92L40.79 6.92Q43.45 6.92 45.60 8.17Q47.76 9.41 49.03 11.60Q50.31 13.78 50.31 16.66ZM46.11 16.66L46.11 16.66Q46.11 14.87 45.39 13.56Q44.68 12.24 43.47 11.51Q42.26 10.77 40.79 10.77L40.79 10.77Q39.32 10.77 38.11 11.51Q36.91 12.24 36.19 13.56Q35.47 14.87 35.47 16.66L35.47 16.66Q35.47 18.41 36.19 19.72Q36.91 21.03 38.11 21.77Q39.32 22.50 40.79 22.50L40.79 22.50Q42.26 22.50 43.47 21.77Q44.68 21.03 45.39 19.72Q46.11 18.41 46.11 16.66ZM63.68 6.92L63.68 6.92Q66.13 6.92 68.07 8.17Q70.02 9.41 71.15 11.58Q72.29 13.75 72.29 16.62L72.29 16.62Q72.29 19.49 71.15 21.68Q70.02 23.86 68.11 25.11Q66.20 26.35 63.82 26.35L63.82 26.35Q62.42 26.35 61.20 25.89Q59.97 25.44 59.04 24.74Q58.12 24.04 57.61 23.32Q57.10 22.61 57.10 22.11L57.10 22.11L58.19 21.66L58.19 24.21Q58.19 25.13 57.59 25.74Q57.00 26.35 56.09 26.35L56.09 26.35Q55.18 26.35 54.58 25.75Q53.99 25.16 53.99 24.21L53.99 24.21L53.99 2.23Q53.99 1.32 54.58 0.71Q55.18 0.10 56.09 0.10L56.09 0.10Q57.00 0.10 57.59 0.71Q58.19 1.32 58.19 2.23L58.19 2.23L58.19 11.12L57.59 10.81Q57.59 10.35 58.08 9.71Q58.57 9.06 59.41 8.41Q60.25 7.76 61.35 7.34Q62.46 6.92 63.68 6.92ZM63.16 10.77L63.16 10.77Q61.62 10.77 60.46 11.54Q59.31 12.31 58.66 13.63Q58.01 14.94 58.01 16.62L58.01 16.62Q58.01 18.27 58.66 19.61Q59.31 20.96 60.46 21.73Q61.62 22.50 63.16 22.50L63.16 22.50Q64.70 22.50 65.83 21.73Q66.97 20.96 67.62 19.61Q68.27 18.27 68.27 16.62L68.27 16.62Q68.27 14.94 67.62 13.63Q66.97 12.31 65.83 11.54Q64.70 10.77 63.16 10.77ZM94.13 16.66L94.13 16.66Q94.13 19.52 92.85 21.71Q91.58 23.90 89.42 25.13Q87.27 26.35 84.61 26.35L84.61 26.35Q81.95 26.35 79.80 25.13Q77.65 23.90 76.37 21.71Q75.09 19.52 75.09 16.66L75.09 16.66Q75.09 13.78 76.37 11.60Q77.65 9.41 79.80 8.17Q81.95 6.92 84.61 6.92L84.61 6.92Q87.27 6.92 89.42 8.17Q91.58 9.41 92.85 11.60Q94.13 13.78 94.13 16.66ZM89.93 16.66L89.93 16.66Q89.93 14.87 89.21 13.56Q88.50 12.24 87.29 11.51Q86.08 10.77 84.61 10.77L84.61 10.77Q83.14 10.77 81.93 11.51Q80.73 12.24 80.01 13.56Q79.29 14.87 79.29 16.66L79.29 16.66Q79.29 18.41 80.01 19.72Q80.73 21.03 81.93 21.77Q83.14 22.50 84.61 22.50L84.61 22.50Q86.08 22.50 87.29 21.77Q88.50 21.03 89.21 19.72Q89.93 18.41 89.93 16.66ZM102.36 2.23L102.36 23.86Q102.36 24.77 101.74 25.39Q101.13 26 100.22 26L100.22 26Q99.35 26 98.75 25.39Q98.16 24.77 98.16 23.86L98.16 23.86L98.16 2.23Q98.16 1.32 98.77 0.71Q99.38 0.10 100.29 0.10L100.29 0.10Q101.20 0.10 101.78 0.71Q102.36 1.32 102.36 2.23L102.36 2.23ZM122.59 6.92L122.59 6.92Q123.50 6.92 124.09 7.52Q124.69 8.11 124.69 9.06L124.69 9.06L124.69 23.86Q124.69 24.77 124.09 25.39Q123.50 26 122.59 26L122.59 26Q121.68 26 121.08 25.39Q120.49 24.77 120.49 23.86L120.49 23.86L120.49 22.15L121.26 22.46Q121.26 22.92 120.77 23.57Q120.28 24.21 119.44 24.84Q118.60 25.48 117.46 25.91Q116.32 26.35 114.99 26.35L114.99 26.35Q112.58 26.35 110.62 25.11Q108.66 23.86 107.52 21.68Q106.38 19.49 106.38 16.66L106.38 16.66Q106.38 13.78 107.52 11.60Q108.66 9.41 110.58 8.17Q112.51 6.92 114.85 6.92L114.85 6.92Q116.36 6.92 117.62 7.38Q118.88 7.83 119.80 8.53Q120.73 9.23 121.24 9.95Q121.75 10.67 121.75 11.16L121.75 11.16L120.49 11.61L120.49 9.06Q120.49 8.15 121.08 7.54Q121.68 6.92 122.59 6.92ZM115.52 22.50L115.52 22.50Q117.06 22.50 118.21 21.73Q119.37 20.96 120.01 19.63Q120.66 18.30 120.66 16.66L120.66 16.66Q120.66 14.97 120.01 13.64Q119.37 12.31 118.21 11.54Q117.06 10.77 115.52 10.77L115.52 10.77Q114.01 10.77 112.86 11.54Q111.70 12.31 111.05 13.64Q110.41 14.97 110.41 16.66L110.41 16.66Q110.41 18.30 111.05 19.63Q111.70 20.96 112.86 21.73Q114.01 22.50 115.52 22.50ZM138.93 6.92L138.93 6.92Q141.38 6.92 143.32 8.17Q145.27 9.41 146.40 11.58Q147.54 13.75 147.54 16.62L147.54 16.62Q147.54 19.49 146.40 21.68Q145.27 23.86 143.36 25.11Q141.45 26.35 139.07 26.35L139.07 26.35Q137.67 26.35 136.45 25.89Q135.22 25.44 134.29 24.74Q133.37 24.04 132.86 23.32Q132.35 22.61 132.35 22.11L132.35 22.11L133.44 21.66L133.44 24.21Q133.44 25.13 132.84 25.74Q132.25 26.35 131.34 26.35L131.34 26.35Q130.43 26.35 129.83 25.75Q129.24 25.16 129.24 24.21L129.24 24.21L129.24 2.23Q129.24 1.32 129.83 0.71Q130.43 0.10 131.34 0.10L131.34 0.10Q132.25 0.10 132.84 0.71Q133.44 1.32 133.44 2.23L133.44 2.23L133.44 11.12L132.84 10.81Q132.84 10.35 133.33 9.71Q133.82 9.06 134.66 8.41Q135.50 7.76 136.60 7.34Q137.71 6.92 138.93 6.92ZM138.41 10.77L138.41 10.77Q136.87 10.77 135.71 11.54Q134.56 12.31 133.91 13.63Q133.26 14.94 133.26 16.62L133.26 16.62Q133.26 18.27 133.91 19.61Q134.56 20.96 135.71 21.73Q136.87 22.50 138.41 22.50L138.41 22.50Q139.95 22.50 141.08 21.73Q142.22 20.96 142.87 19.61Q143.52 18.27 143.52 16.62L143.52 16.62Q143.52 14.94 142.87 13.63Q142.22 12.31 141.08 11.54Q139.95 10.77 138.41 10.77ZM150.13 23.09L150.13 23.09Q149.78 22.61 149.82 21.84Q149.85 21.06 150.73 20.50L150.73 20.50Q151.29 20.16 151.92 20.21Q152.55 20.26 153.14 20.86L153.14 20.86Q154.16 21.87 155.28 22.43Q156.40 22.99 158.08 22.99L158.08 22.99Q158.60 22.95 159.23 22.83Q159.86 22.71 160.33 22.27Q160.81 21.84 160.81 20.93L160.81 20.93Q160.81 20.16 160.28 19.70Q159.76 19.24 158.90 18.93Q158.04 18.61 156.99 18.34L156.99 18.34Q155.91 18.02 154.77 17.63Q153.63 17.25 152.69 16.64Q151.74 16.02 151.15 15.01Q150.55 13.99 150.55 12.45L150.55 12.45Q150.55 10.70 151.53 9.48Q152.51 8.25 154.07 7.59Q155.63 6.92 157.34 6.92L157.34 6.92Q158.43 6.92 159.62 7.19Q160.81 7.45 161.89 8.03Q162.98 8.60 163.71 9.55L163.71 9.55Q164.10 10.07 164.17 10.81Q164.24 11.54 163.50 12.14L163.50 12.14Q162.98 12.56 162.28 12.51Q161.58 12.45 161.12 12.03L161.12 12.03Q160.53 11.26 159.53 10.81Q158.53 10.35 157.24 10.35L157.24 10.35Q156.71 10.35 156.10 10.48Q155.49 10.60 155.03 11.00Q154.58 11.40 154.58 12.28L154.58 12.28Q154.58 13.08 155.10 13.56Q155.63 14.03 156.52 14.33Q157.41 14.62 158.43 14.90L158.43 14.90Q159.48 15.18 160.56 15.57Q161.65 15.95 162.56 16.59Q163.47 17.21 164.03 18.21Q164.59 19.21 164.59 20.75L164.59 20.75Q164.59 22.54 163.54 23.80Q162.49 25.05 160.91 25.70Q159.34 26.35 157.69 26.35L157.69 26.35Q155.63 26.35 153.56 25.63Q151.50 24.91 150.13 23.09Z" fill="#fba23c"></path></g>
        
      </svg>